<svg width="16" height="17" viewBox="0 0 16 17" fill="none" xmlns="http://www.w3.org/2000/svg">
<path d="M14.6665 11.8066V13.8066C14.6672 13.9923 14.6292 14.176 14.5548 14.3462C14.4804 14.5163 14.3713 14.669 14.2345 14.7945C14.0977 14.92 13.9362 15.0156 13.7603 15.0751C13.5844 15.1345 13.398 15.1566 13.2131 15.1399C11.1617 14.917 9.19113 14.216 7.45979 13.0933C5.84901 12.0697 4.48335 10.704 3.45979 9.09326C2.33311 7.35406 1.63195 5.37392 1.41313 3.31326C1.39647 3.12891 1.41838 2.9431 1.47746 2.76768C1.53654 2.59225 1.63151 2.43105 1.7563 2.29434C1.8811 2.15763 2.033 2.0484 2.20232 1.97361C2.37164 1.89882 2.55469 1.8601 2.73979 1.85993H4.73979C5.06333 1.85674 5.37699 1.97131 5.6223 2.18228C5.86761 2.39325 6.02784 2.68623 6.07313 3.00659C6.15754 3.64664 6.31409 4.27508 6.53979 4.87993C6.62949 5.11854 6.6489 5.37787 6.59573 5.62718C6.54256 5.87649 6.41903 6.10534 6.23979 6.28659L5.39313 7.13326C6.34216 8.80229 7.7241 10.1842 9.39313 11.1333L10.2398 10.2866C10.4211 10.1074 10.6499 9.98383 10.8992 9.93066C11.1485 9.87749 11.4078 9.8969 11.6465 9.98659C12.2513 10.2123 12.8797 10.3688 13.5198 10.4533C13.8436 10.4989 14.1394 10.6621 14.3508 10.9116C14.5622 11.1611 14.6746 11.4796 14.6665 11.8066Z" stroke="#1B1B1B" stroke-linecap="round" stroke-linejoin="round"/>
</svg>
